<?xml version="1.0" encoding="utf-8"?>
<!-- Generator: Adobe Illustrator 28.0.0, SVG Export Plug-In . SVG Version: 6.00 Build 0)  -->
<svg version="1.1" xmlns="http://www.w3.org/2000/svg" xmlns:xlink="http://www.w3.org/1999/xlink" x="0px" y="0px"
	 viewBox="0 0 90.41 104.32" style="enable-background:new 0 0 90.41 104.32;" xml:space="preserve">
<style type="text/css">
	.st0{fill:#000;}
</style>
<g id="BACKGROUND">
</g>
<g id="OBJECTS">
	<g>
		<path class="st0" d="M79.15,22.31c-0.7-0.36-1.39-0.76-2.05-1.2c-1.93-1.28-3.7-2.78-5.27-4.48c-3.93-4.5-5.4-9.07-5.94-12.26
			h0.02C65.45,1.72,65.64,0,65.67,0H47.75v69.27c0,0.93,0,1.85-0.04,2.76c0,0.11-0.01,0.22-0.02,0.34c0,0.05,0,0.1-0.01,0.15
			c0,0.01,0,0.03,0,0.04c-0.38,5.05-3.25,9.57-7.65,12.07c-2.26,1.29-4.81,1.96-7.41,1.96c-8.35,0-15.11-6.81-15.11-15.21
			c0-8.41,6.76-15.21,15.11-15.21c1.58,0,3.15,0.25,4.65,0.74l0.02-18.24c-9.22-1.19-18.52,1.53-25.64,7.5
			c-3.09,2.68-5.68,5.88-7.67,9.46c-0.76,1.3-3.61,6.54-3.95,15.05C-0.2,75.5,1.25,80.5,1.95,82.57v0.04
			c0.43,1.22,2.12,5.37,4.86,8.87c2.21,2.81,4.83,5.28,7.76,7.32v-0.04l0.04,0.04c8.67,5.89,18.29,5.51,18.29,5.51
			c1.66-0.07,7.24,0,13.57-3c7.02-3.33,11.02-8.28,11.02-8.28c2.55-2.96,4.59-6.34,6.01-9.98c1.62-4.26,2.16-9.37,2.16-11.42V34.88
			c0.22,0.13,3.11,2.04,3.11,2.04s4.17,2.67,10.68,4.41c4.67,1.24,10.96,1.5,10.96,1.5V25.05C88.21,25.29,83.73,24.59,79.15,22.31z"
			/>
	</g>
</g>
</svg>
