<?xml version="1.0" encoding="utf-8"?>
<!-- Generator: Adobe Illustrator 28.0.0, SVG Export Plug-In . SVG Version: 6.00 Build 0)  -->
<svg version="1.1" id="Layer_1" xmlns="http://www.w3.org/2000/svg" xmlns:xlink="http://www.w3.org/1999/xlink" x="0px" y="0px"
	 viewBox="0 0 73.09 73.09" style="enable-background:new 0 0 73.09 73.09;" xml:space="preserve">
<style type="text/css">
	.st0{fill:#000;}
</style>
<g>
	<g>
		<g>
			<path class="st0" d="M36.55,0C16.36,0,0,16.36,0,36.55c0,15.48,9.63,28.72,23.23,34.04c-0.32-2.89-0.61-7.34,0.13-10.5
				c0.66-2.85,4.29-18.17,4.29-18.17s-1.09-2.19-1.09-5.43c0-5.08,2.95-8.88,6.61-8.88c3.12,0,4.62,2.34,4.62,5.15
				c0,3.14-2,7.82-3.03,12.17c-0.86,3.64,1.82,6.6,5.41,6.6c6.5,0,11.49-6.85,11.49-16.74c0-8.75-6.29-14.87-15.27-14.87
				c-10.4,0-16.5,7.8-16.5,15.86c0,3.14,1.21,6.51,2.72,8.34c0.3,0.36,0.34,0.68,0.25,1.05c-0.28,1.15-0.89,3.64-1.02,4.14
				c-0.16,0.67-0.53,0.81-1.22,0.49c-4.56-2.12-7.42-8.8-7.42-14.16c0-11.53,8.38-22.12,24.15-22.12c12.68,0,22.53,9.03,22.53,21.11
				c0,12.6-7.94,22.73-18.96,22.73c-3.7,0-7.18-1.92-8.38-4.2c0,0-1.83,6.98-2.28,8.69c-0.83,3.17-3.05,7.15-4.54,9.58
				c3.42,1.06,7.05,1.63,10.82,1.63c20.18,0,36.55-16.36,36.55-36.55C73.09,16.36,56.73,0,36.55,0z"/>
		</g>
	</g>
</g>
</svg>
