<?xml version="1.0" encoding="utf-8"?>
<!-- Generator: Adobe Illustrator 28.0.0, SVG Export Plug-In . SVG Version: 6.00 Build 0)  -->
<svg version="1.1" id="Logo_00000158727625646119494500000015711314265259652764_"
	 xmlns="http://www.w3.org/2000/svg" xmlns:xlink="http://www.w3.org/1999/xlink" x="0px" y="0px" viewBox="0 0 500 498.17"
	 style="enable-background:new 0 0 500 498.17;" xml:space="preserve">
<style type="text/css">
	.st0{fill:#000000;}
	.st1{fill:none;}
</style>
<g id="Logo">
	<path id="Initiator" class="st0" d="M500,250C500,111.93,388.07,0,250,0S0,111.93,0,250c0,117.24,80.72,215.62,189.61,242.64V326.4
		h-51.55V250h51.55v-32.92c0-85.09,38.51-124.53,122.05-124.53c15.84,0,43.17,3.11,54.35,6.21v69.25
		c-5.9-0.62-16.15-0.93-28.88-0.93c-40.99,0-56.83,15.53-56.83,55.9V250h81.66l-14.03,76.4H280.3v171.77
		C404.07,483.22,500,377.82,500,250z"/>
	<path id="F" class="st1" d="M347.92,326.4l14.03-76.4h-81.66v-27.02c0-40.37,15.84-55.9,56.83-55.9c12.73,0,22.98,0.31,28.88,0.93
		V98.76c-11.18-3.11-38.51-6.21-54.35-6.21c-83.54,0-122.05,39.44-122.05,124.53V250h-51.55v76.4h51.55v166.24
		c19.34,4.8,39.57,7.36,60.39,7.36c10.25,0,20.36-0.63,30.29-1.83V326.4H347.92z"/>
</g>
</svg>
